<svg xmlns="http://www.w3.org/2000/svg" viewBox="0 0 342.4286 342.4286"><defs><style>.a{fill:#fff;}</style></defs><circle class="a" cx="171.2143" cy="171.2143" r="171.2143"/><polygon points="171.214 289.279 170.714 288.991 68.967 230.247 68.967 112.182 69.467 111.893 170.714 53.438 171.714 55.17 70.967 113.336 70.967 229.092 171.214 286.97 271.461 229.092 271.461 112.759 273.461 112.759 273.461 230.247 272.961 230.536 171.214 289.279"/><path d="M150.4145,109.2143V223.6137h-7.68V109.2143Zm61.12,0-48.64,55.36q9.7579,11.6814,22.48,26.08,12.7207,14.4009,16.48,17.76,3.7574,3.36,5.92,5.04a36.9813,36.9813,0,0,0,16.24,6.32l-.16,5.12q-9.6006-.1611-15.84-2.96a36.8829,36.8829,0,0,1-10.88-7.36q-4.6436-4.56-20.24-22.3995-15.6-17.8388-23.44-27.28l49.12-55.68Z"/><path d="M171.2143,310.933l-121-69.8593V101.3549l121-69.8594,121,69.8594V241.0737Zm-111-75.6328,111,64.086,111-64.086V107.1283l-111-64.0859-111,64.0859Z"/></svg>